<svg width="14" height="13" viewBox="0 0 14 13" fill="none" xmlns="http://www.w3.org/2000/svg">
<path d="M13.3749 11.0484L12.3333 1.24848C12.3333 0.632362 11.856 0.133331 11.2666 0.133331H6.99998H2.73331C2.14398 0.133331 1.66664 0.632362 1.66664 1.24848L0.625042 11.0484C0.609576 11.1248 0.599976 11.2034 0.599976 11.2848C0.599976 11.901 1.07731 12.4 1.66664 12.4H6.99998H12.3333C12.9226 12.4 13.4 11.901 13.4 11.2848C13.4 11.2034 13.3904 11.1248 13.3749 11.0484ZM9.66664 2.86991V3.47879C9.66664 5.01602 8.47038 6.26666 6.99998 6.26666C5.52958 6.26666 4.33331 5.01602 4.33331 3.47879V2.86991C4.02344 2.75505 3.79998 2.44839 3.79998 2.08485C3.79998 1.62317 4.15838 1.24848 4.59998 1.24848C5.04158 1.24848 5.39998 1.62317 5.39998 2.08485V3.47879C5.39998 4.40102 6.11784 5.15151 6.99998 5.15151C7.88211 5.15151 8.59998 4.40102 8.59998 3.47879V2.08485C8.59998 1.62317 8.95837 1.24848 9.39997 1.24848C9.84157 1.24848 10.2 1.62317 10.2 2.08485C10.2 2.44839 9.97651 2.75505 9.66664 2.86991Z" fill="#F9F9F9"/>
</svg>
