<svg width="72" height="100" viewBox="0 0 72 100" fill="none" xmlns="http://www.w3.org/2000/svg">
<path d="M71.8118 90.9333L66.7368 33.4333C66.3556 29.1021 62.7868 25.8333 58.4368 25.8333C57.4375 25.8333 56.6243 26.6458 56.6243 27.6458V36.6104C56.6243 37.4979 55.9535 38.2729 55.0681 38.3292C54.0973 38.3917 53.291 37.6229 53.291 36.6667V17.2917C53.291 7.75625 45.5348 0 35.9993 0C26.4639 0 18.7077 7.75625 18.7077 17.2917V25.8333H13.5618C9.21183 25.8333 5.64308 29.1021 5.26183 33.4333L0.186832 90.9333C-0.240252 95.7927 3.59162 100 8.48891 100H63.5098C68.4077 100 72.2389 95.7921 71.8118 90.9333ZM26.416 88.9583H14.3327C13.4122 88.9583 12.666 88.2121 12.666 87.2917C12.666 86.3712 13.4122 85.625 14.3327 85.625H26.416C27.3364 85.625 28.0827 86.3712 28.0827 87.2917C28.0827 88.2121 27.3364 88.9583 26.416 88.9583ZM26.416 80.625H14.3327C13.4122 80.625 12.666 79.8787 12.666 78.9583C12.666 78.0379 13.4122 77.2917 14.3327 77.2917H26.416C27.3364 77.2917 28.0827 78.0379 28.0827 78.9583C28.0827 79.8787 27.3364 80.625 26.416 80.625ZM49.9577 25.8333H27.1868C26.1868 25.8333 25.3743 26.6458 25.3743 27.6458V36.6104C25.3743 37.4979 24.7035 38.2729 23.8181 38.3292C22.8472 38.3917 22.041 37.6229 22.041 36.6667V17.2917C22.041 9.59583 28.3035 3.33333 35.9993 3.33333C43.6952 3.33333 49.9577 9.59583 49.9577 17.2917V25.8333Z" fill="#DB3022"/>
</svg>
